<?xml version="1.0" encoding="UTF-8"?>
<svg width="925px" height="752px" style="background:#FFFFFF;height:752px;width:925px" contentStyleType="text/css" preserveAspectRatio="none" version="1.1" viewBox="0 0 925 752" xmlns="http://www.w3.org/2000/svg" zoomAndPan="magnify"><text x="289" y="24.9659" fill="#000000" font-family="sans-serif" font-size="14" font-weight="bold" textLength="333">Dependencies for default multi-user target boot</text><rect x="540.5" y="452.07" width="100" height="55.412" rx="12.5" ry="12.5" fill="#F1F1F1" stroke="#181818" stroke-width=".5"/><line x1="540.5" x2="640.5" y1="481.14" y2="481.14" stroke="#181818" stroke-width=".5"/><text x="550.5" y="472.0339" fill="#000000" font-family="sans-serif" font-size="14" textLength="80">basic.target</text><text x="545.5" y="498.9639" fill="#000000" font-family="sans-serif" font-size="12" textLength="74">Basic System</text><rect x="7" y="511.07" width="159" height="55.412" rx="12.5" ry="12.5" fill="#F1F1F1" stroke="#181818" stroke-width=".5"/><line x1="7" x2="166" y1="540.14" y2="540.14" stroke="#181818" stroke-width=".5"/><text x="28" y="531.0339" fill="#000000" font-family="sans-serif" font-size="14" textLength="117">cryptsetup.target</text><text x="12" y="557.9639" fill="#000000" font-family="sans-serif" font-size="12" textLength="139">Local Encrypted Volumes</text><rect x="540.5" y="47.068" width="100" height="55.412" rx="12.5" ry="12.5" fill="#F1F1F1" stroke="#181818" stroke-width=".5"/><line x1="540.5" x2="640.5" y1="76.136" y2="76.136" stroke="#181818" stroke-width=".5"/><text x="551" y="67.0339" fill="#000000" font-family="sans-serif" font-size="14" textLength="79">getty.target</text><text x="545.5" y="93.9639" fill="#000000" font-family="sans-serif" font-size="12" textLength="80">Login Prompts</text><rect x="26" y="601.07" width="121" height="55.412" rx="12.5" ry="12.5" fill="#F1F1F1" stroke="#181818" stroke-width=".5"/><line x1="26" x2="147" y1="630.14" y2="630.14" stroke="#181818" stroke-width=".5"/><text x="40" y="621.0339" fill="#000000" font-family="sans-serif" font-size="14" textLength="93">local-fs.target</text><text x="31" y="647.9639" fill="#000000" font-family="sans-serif" font-size="12" textLength="101">Local File Systems</text><rect x="783" y="227.07" width="135" height="55.412" rx="12.5" ry="12.5" fill="#F1F1F1" stroke="#181818" stroke-width=".5"/><line x1="783" x2="918" y1="256.14" y2="256.14" stroke="#181818" stroke-width=".5"/><text x="793" y="247.0339" fill="#000000" font-family="sans-serif" font-size="14" textLength="115">multi-user.target</text><text x="788" y="273.9639" fill="#000000" font-family="sans-serif" font-size="12" textLength="103">Multi-User System</text><rect x="272.5" y="241.07" width="119" height="55.412" rx="12.5" ry="12.5" fill="#F1F1F1" stroke="#181818" stroke-width=".5"/><line x1="272.5" x2="391.5" y1="270.14" y2="270.14" stroke="#181818" stroke-width=".5"/><text x="282.5" y="261.0339" fill="#000000" font-family="sans-serif" font-size="14" textLength="99">network.target</text><text x="277.5" y="287.9639" fill="#000000" font-family="sans-serif" font-size="12" textLength="47">Network</text><rect x="280.5" y="331.07" width="103" height="55.412" rx="12.5" ry="12.5" fill="#F1F1F1" stroke="#181818" stroke-width=".5"/><line x1="280.5" x2="383.5" y1="360.14" y2="360.14" stroke="#181818" stroke-width=".5"/><text x="290.5" y="351.0339" fill="#000000" font-family="sans-serif" font-size="14" textLength="83">paths.target</text><text x="285.5" y="377.9639" fill="#000000" font-family="sans-serif" font-size="12" textLength="31">Paths</text><rect x="523" y="137.07" width="135" height="55.412" rx="12.5" ry="12.5" fill="#F1F1F1" stroke="#181818" stroke-width=".5"/><line x1="523" x2="658" y1="166.14" y2="166.14" stroke="#181818" stroke-width=".5"/><text x="535.5" y="157.0339" fill="#000000" font-family="sans-serif" font-size="14" textLength="110">remote-fs.target</text><text x="528" y="183.9639" fill="#000000" font-family="sans-serif" font-size="12" textLength="115">Remote File Systems</text><rect x="281" y="421.07" width="102" height="55.412" rx="12.5" ry="12.5" fill="#F1F1F1" stroke="#181818" stroke-width=".5"/><line x1="281" x2="383" y1="450.14" y2="450.14" stroke="#181818" stroke-width=".5"/><text x="291" y="441.0339" fill="#000000" font-family="sans-serif" font-size="14" textLength="82">slices.target</text><text x="286" y="467.9639" fill="#000000" font-family="sans-serif" font-size="12" textLength="32">Slices</text><rect x="275" y="511.07" width="114" height="55.412" rx="12.5" ry="12.5" fill="#F1F1F1" stroke="#181818" stroke-width=".5"/><line x1="275" x2="389" y1="540.14" y2="540.14" stroke="#181818" stroke-width=".5"/><text x="285" y="531.0339" fill="#000000" font-family="sans-serif" font-size="14" textLength="94">sockets.target</text><text x="280" y="557.9639" fill="#000000" font-family="sans-serif" font-size="12" textLength="43">Sockets</text><rect x="36.5" y="691.07" width="100" height="55.412" rx="12.5" ry="12.5" fill="#F1F1F1" stroke="#181818" stroke-width=".5"/><line x1="36.5" x2="136.5" y1="720.14" y2="720.14" stroke="#181818" stroke-width=".5"/><text x="46.5" y="711.0339" fill="#000000" font-family="sans-serif" font-size="14" textLength="80">swap.target</text><text x="41.5" y="737.9639" fill="#000000" font-family="sans-serif" font-size="12" textLength="30">Swap</text><rect x="266" y="601.07" width="132" height="55.412" rx="12.5" ry="12.5" fill="#F1F1F1" stroke="#181818" stroke-width=".5"/><line x1="266" x2="398" y1="630.14" y2="630.14" stroke="#181818" stroke-width=".5"/><text x="288" y="621.0339" fill="#000000" font-family="sans-serif" font-size="14" textLength="88">sysinit.target</text><text x="271" y="647.9639" fill="#000000" font-family="sans-serif" font-size="12" textLength="112">System Initialization</text><rect x="278" y="691.07" width="108" height="55.412" rx="12.5" ry="12.5" fill="#F1F1F1" stroke="#181818" stroke-width=".5"/><line x1="278" x2="386" y1="720.14" y2="720.14" stroke="#181818" stroke-width=".5"/><text x="288" y="711.0339" fill="#000000" font-family="sans-serif" font-size="14" textLength="88">timers.target</text><text x="283" y="737.9639" fill="#000000" font-family="sans-serif" font-size="12" textLength="39">Timers</text><rect x="521" y="227.07" width="139" height="55.412" rx="12.5" ry="12.5" fill="#F1F1F1" stroke="#181818" stroke-width=".5"/><line x1="521" x2="660" y1="256.14" y2="256.14" stroke="#181818" stroke-width=".5"/><text x="540" y="247.0339" fill="#000000" font-family="sans-serif" font-size="14" textLength="101">dhcpcd.service</text><text x="526" y="273.9639" fill="#000000" font-family="sans-serif" font-size="12" textLength="119">DHCP Client Daemon</text><rect x="512" y="317.07" width="157" height="55.412" rx="12.5" ry="12.5" fill="#F1F1F1" stroke="#181818" stroke-width=".5"/><line x1="512" x2="669" y1="346.14" y2="346.14" stroke="#181818" stroke-width=".5"/><text x="527" y="337.0339" fill="#000000" font-family="sans-serif" font-size="14" textLength="127">networking.service</text><text x="517" y="363.9639" fill="#000000" font-family="sans-serif" font-size="12" textLength="137">Raise network interfaces</text><path d="m623.39 451.75c48.07-41.91 138.82-121.05 189.51-165.26" fill="none" stroke="#f00" stroke-width="2"/><polygon points="816.54 283.32 807.13 286.21 812.77 286.6 812.38 292.25" fill="#f00" stroke="#f00" stroke-width="2"/><text x="700" y="336.4649" fill="#000000" font-family="sans-serif" font-size="13" textLength="52">Requires</text><path d="m660.3 254.57h116.13" fill="none" stroke="#181818"/><polygon points="781.16 254.57 772.16 250.57 776.16 254.57 772.16 258.57" fill="#181818" stroke="#181818"/><text x="707" y="250.4649" fill="#000000" font-family="sans-serif" font-size="13" textLength="38">Wants</text><path d="m640.63 102.32c9.5 5.58 19.3 11.5 28.37 17.25 38.31 24.3 47.58 30.95 84 58 19.5 14.49 40.65 31.24 58.17 45.41" fill="none" stroke="#181818"/><polygon points="814.83 225.95 810.37 217.17 810.95 222.8 805.32 223.38" fill="#181818" stroke="#181818"/><text x="707" y="136.4649" fill="#000000" font-family="sans-serif" font-size="13" textLength="38">Wants</text><path d="m669.26 317.44c34.22-11.93 74.19-25.88 107.78-37.59" fill="none" stroke="#181818"/><polygon points="781.38 278.33 771.56 277.51 776.66 279.97 774.2 285.07" fill="#181818" stroke="#181818"/><text x="707" y="285.4649" fill="#000000" font-family="sans-serif" font-size="13" textLength="38">Wants</text><path d="m658.28 187.86c36.28 12.66 81.19 28.33 118.38 41.3" fill="none" stroke="#181818"/><polygon points="781.13 230.72 773.95 223.98 776.41 229.07 771.32 231.53" fill="#181818" stroke="#181818"/><text x="707" y="200.4649" fill="#000000" font-family="sans-serif" font-size="13" textLength="38">Wants</text><path d="m383.98 382.62c43.58 20.56 106.12 50.06 150.75 71.11" fill="none" stroke="#181818"/><polygon points="538.99 455.74 532.56 448.28 534.47 453.61 529.14 455.52" fill="#181818" stroke="#181818"/><text x="436" y="401.4649" fill="#000000" font-family="sans-serif" font-size="13" textLength="38">Wants</text><path d="m383.37 454.66c43.34 5.24 105.76 12.78 150.55 18.19" fill="none" stroke="#181818"/><polygon points="538.61 473.42 530.15 468.37 533.65 472.82 529.2 476.31" fill="#181818" stroke="#181818"/><text x="436" y="456.4649" fill="#000000" font-family="sans-serif" font-size="13" textLength="38">Wants</text><path d="m389.29 525.62c43.01-9.89 101.99-23.46 144.78-33.3" fill="none" stroke="#181818"/><polygon points="538.79 491.23 529.12 489.36 533.92 492.36 530.92 497.16" fill="#181818" stroke="#181818"/><text x="436" y="501.4649" fill="#000000" font-family="sans-serif" font-size="13" textLength="38">Wants</text><path d="m382.46 600.66c29.06-16.48 66.48-37.82 99.54-57.09 18.2-10.61 38.03-22.36 55.65-32.87" fill="none" stroke="#f00" stroke-width="2"/><polygon points="541.75 508.26 531.97 509.43 537.46 510.82 536.07 516.3" fill="#f00" stroke="#f00" stroke-width="2"/><text x="429" y="539.4649" fill="#000000" font-family="sans-serif" font-size="13" textLength="52">Requires</text><path d="m374.72 690.63c7.84-5.51 15.89-11.36 23.28-17.06 38.93-30.03 48.99-37.47 84-72 29.2-28.81 59.89-64.22 80.97-89.46" fill="none" stroke="#181818"/><polygon points="566.08 508.37 557.25 512.72 562.88 512.21 563.39 517.84" fill="#181818" stroke="#181818"/><text x="436" y="597.4649" fill="#000000" font-family="sans-serif" font-size="13" textLength="38">Wants</text><path d="m163.21 566.55c30.76 11.37 66.11 24.44 96.41 35.64" fill="none" stroke="#181818"/><polygon points="264.19 603.88 257.12 597.02 259.5 602.15 254.36 604.53" fill="#181818" stroke="#181818"/><text x="197" y="577.4649" fill="#000000" font-family="sans-serif" font-size="13" textLength="38">Wants</text><path d="m147.38 628.57h112.3" fill="none" stroke="#181818"/><polygon points="264.28 628.57 255.28 624.57 259.28 628.57 255.28 632.57" fill="#181818" stroke="#181818"/><text x="197" y="624.4649" fill="#000000" font-family="sans-serif" font-size="13" textLength="38">Wants</text><path d="m136.78 700.36c35.36-13.07 83.55-30.89 123.08-45.5" fill="none" stroke="#181818"/><polygon points="264.21 653.26 254.38 652.62 259.52 654.99 257.15 660.13" fill="#181818" stroke="#181818"/><text x="197" y="661.4649" fill="#000000" font-family="sans-serif" font-size="13" textLength="38">Wants</text><path d="m391.85 265.36c36.5-1.99 83.74-4.57 122.88-6.71" fill="none" stroke="#181818"/><polygon points="519.43 258.39 510.23 254.88 514.44 258.66 510.66 262.87" fill="#181818" stroke="#181818"/><text x="436" y="257.4649" fill="#000000" font-family="sans-serif" font-size="13" textLength="38">Wants</text><path d="m391.85 286.01c33.83 10.02 76.89 22.78 114.17 33.83" fill="none" stroke="#181818"/><polygon points="510.5 321.16 503.02 314.75 505.71 319.73 500.73 322.42" fill="#181818" stroke="#181818"/><text x="436" y="293.4649" fill="#000000" font-family="sans-serif" font-size="13" textLength="38">Wants</text></svg>
