<?xml version="1.0" encoding="UTF-8"?>
<svg width="16" height="16" version="1.1" viewBox="0 0 16 16" xml:space="preserve" xmlns="http://www.w3.org/2000/svg" xmlns:xlink="http://www.w3.org/1999/xlink"><defs><linearGradient id="c" x1="3.6606" x2="12.479" y1=".70773" y2="16.541" gradientUnits="userSpaceOnUse"><stop stop-color="#1a1a1a" offset="0"/><stop stop-color="#333" offset="1"/></linearGradient><radialGradient id="a" cx="7.3586" cy="6.4497" r="3.1189" gradientTransform="matrix(1.3847 2.359 -1.72 1.0096 8.2624 -19.183)" gradientUnits="userSpaceOnUse"><stop stop-color="#43b7e7" offset="0"/><stop stop-color="#4258ed" offset="1"/></radialGradient><linearGradient id="b" x1="5" x2="16" y1="6" y2="11" gradientUnits="userSpaceOnUse" spreadMethod="reflect"><stop stop-color="#f8f49c" offset="0"/><stop stop-color="#cfbe31" offset="1"/></linearGradient></defs><g><rect x="3.5" y=".5" width="9" height="15" rx="1.5" fill="url(#c)" stroke="#000" stroke-linecap="round" stroke-linejoin="round" style="paint-order:stroke fill markers"/><rect x="4" y="1" width="8" height="14" rx="1.5" ry="1.5" fill="url(#a)" style="paint-order:stroke fill markers"/><path d="m2.4253 6.82c-1.7602 0.78539-1.6101 2.2994-1.0199 3.617 0.59015 1.3177 1.6203 2.439 3.3805 1.6536 1.7602-0.78539 1.4218-2.754 1.4133-2.7386l0.88008-0.39269 1.4702 0.92496 0.88008-0.39269 0.28994-1.7103 1.2735 0.48574 0.88008-0.39269 0.48665-1.2711 1.2735 0.48574 0.48665-1.2711 0.88008-0.39269-0.78686-1.7569-8.8008 3.9269c-0.017728 0.041854-1.2269-1.5605-2.9871-0.77514zm0.78686 1.7569a0.96402 0.96222 0 0 1 1.2735 0.48574 0.96402 0.96222 0 0 1-0.48665 1.2711 0.96402 0.96222 0 0 1-1.2735-0.48574 0.96402 0.96222 0 0 1 0.48665-1.2711z" fill="url(#b)" stroke="#000" stroke-linejoin="round" stroke-width="2" style="paint-order:stroke fill markers"/></g></svg>
