<?xml version="1.0" encoding="UTF-8"?>
<svg width="783px" height="504px" style="background:#FFFFFF;height:504px;width:783px" contentStyleType="text/css" preserveAspectRatio="none" version="1.1" viewBox="0 0 783 504" xmlns="http://www.w3.org/2000/svg" zoomAndPan="magnify"><text x="289" y="24.9659" fill="#000000" font-family="sans-serif" font-size="14" font-weight="bold" textLength="191">Adding SIFIS-Home Targets</text><rect x="283.5" y="109.57" width="200" height="55.412" rx="12.5" ry="12.5" fill="#ADD8E6" stroke="#181818" stroke-width=".5"/><line x1="283.5" x2="483.5" y1="138.64" y2="138.64" stroke="#181818" stroke-width=".5"/><text x="324" y="129.5339" fill="#000000" font-family="sans-serif" font-size="14" textLength="119">sifis-config.target</text><text x="288.5" y="156.4639" fill="#000000" font-family="sans-serif" font-size="12" textLength="180">SIFIS-Home Configuration Mode</text><rect x="316" y="199.57" width="135" height="55.412" rx="12.5" ry="12.5" fill="#ADD8E6" stroke="#181818" stroke-width=".5"/><line x1="316" x2="451" y1="228.64" y2="228.64" stroke="#181818" stroke-width=".5"/><text x="326" y="219.5339" fill="#000000" font-family="sans-serif" font-size="14" textLength="115">sifis-home.target</text><text x="321" y="246.4639" fill="#000000" font-family="sans-serif" font-size="12" textLength="110">SIFIS-Home System</text><path d="m226 46.068v27.706h153.5l4 35.324 4-35.324h153.5v-17.706l-10-10h-305" fill="#FEFFDD" stroke="#181818" stroke-width=".5"/><path d="m531 46.068v10h10l-10-10" fill="#FEFFDD" stroke="#181818" stroke-width=".5"/><text x="232" y="64.9649" fill="#008000" font-family="sans-serif" font-size="13" textLength="121">ConditionPathExists</text><text x="353" y="64.9649" fill="#000000" font-family="sans-serif" font-size="13" textLength="7">=</text><text x="360" y="64.9649" fill="#0000FF" font-family="sans-serif" font-size="13" textLength="166">!/opt/sifis-home/config.json</text><path d="m228 290.07v27.706h311v-17.706l-10-10h-141.5l-4-35.14-4 35.14h-151.5" fill="#FEFFDD" stroke="#181818" stroke-width=".5"/><path d="m529 290.07v10h10l-10-10" fill="#FEFFDD" stroke="#181818" stroke-width=".5"/><text x="234" y="308.9649" fill="#008000" font-family="sans-serif" font-size="13" textLength="128">ConditionPathExists=</text><text x="362" y="308.9649" fill="#0000FF" font-family="sans-serif" font-size="13" textLength="162">/opt/sifis-home/config.json</text><rect x="7" y="304.57" width="119" height="55.412" rx="12.5" ry="12.5" fill="#F1F1F1" stroke="#181818" stroke-width=".5"/><line x1="7" x2="126" y1="333.64" y2="333.64" stroke="#181818" stroke-width=".5"/><text x="17" y="324.5339" fill="#000000" font-family="sans-serif" font-size="14" textLength="99">network.target</text><text x="12" y="351.4639" fill="#000000" font-family="sans-serif" font-size="12" textLength="47">Network</text><rect x="641" y="280.57" width="135" height="55.412" rx="12.5" ry="12.5" fill="#F1F1F1" stroke="#181818" stroke-width=".5"/><line x1="641" x2="776" y1="309.64" y2="309.64" stroke="#181818" stroke-width=".5"/><text x="651" y="300.5339" fill="#000000" font-family="sans-serif" font-size="14" textLength="115">multi-user.target</text><text x="646" y="327.4639" fill="#000000" font-family="sans-serif" font-size="12" textLength="103">Multi-User System</text><rect x="314" y="353.57" width="139" height="55.412" rx="12.5" ry="12.5" fill="#F1F1F1" stroke="#181818" stroke-width=".5"/><line x1="314" x2="453" y1="382.64" y2="382.64" stroke="#181818" stroke-width=".5"/><text x="333" y="373.5339" fill="#000000" font-family="sans-serif" font-size="14" textLength="101">dhcpcd.service</text><text x="319" y="400.4639" fill="#000000" font-family="sans-serif" font-size="12" textLength="119">DHCP Client Daemon</text><rect x="305" y="443.57" width="157" height="55.412" rx="12.5" ry="12.5" fill="#F1F1F1" stroke="#181818" stroke-width=".5"/><line x1="305" x2="462" y1="472.64" y2="472.64" stroke="#181818" stroke-width=".5"/><text x="320" y="463.5339" fill="#000000" font-family="sans-serif" font-size="14" textLength="127">networking.service</text><text x="310" y="490.4639" fill="#000000" font-family="sans-serif" font-size="12" textLength="137">Raise network interfaces</text><path d="m89.46 304.36c28.16-33.7 80.12-90.07 136.54-122.29 15.77-9.01 33.48-16.33 51.16-22.24" fill="none" stroke="#181818"/><polygon points="281.72 158.35 271.92 157.32 276.96 159.89 274.39 164.93" fill="#181818" stroke="#181818"/><text x="157" y="200.9649" fill="#000000" font-family="sans-serif" font-size="13" textLength="38">Wants</text><path d="m126.17 308.55c29.71-11.58 66.46-25.39 99.83-36.48 27.19-9.04 57.37-17.97 83.92-25.47" fill="none" stroke="#181818"/><polygon points="314.42 245.34 304.68 243.9 309.6 246.68 306.83 251.61" fill="#181818" stroke="#181818"/><text x="157" y="278.9649" fill="#000000" font-family="sans-serif" font-size="13" textLength="38">Wants</text><path d="m483.85 159.66c19.45 6.07 39.33 13.49 57.15 22.41 50.06 25.04 100.3 65.72 132.3 94.05" fill="none" stroke="#181818"/><polygon points="676.75 279.2 672.68 270.23 673.01 275.88 667.37 276.21" fill="#181818" stroke="#181818"/><text x="572" y="197.9649" fill="#000000" font-family="sans-serif" font-size="13" textLength="38">Wants</text><path d="m451.43 243.85c53.37 13.39 128.03 32.11 182.97 45.89" fill="none" stroke="#181818"/><polygon points="639.19 290.94 631.43 284.87 634.34 289.72 629.49 292.63" fill="#181818" stroke="#181818"/><text x="572" y="270.9649" fill="#000000" font-family="sans-serif" font-size="13" textLength="38">Wants</text><path d="m453.4 365.5c53.25-12.04 126.79-28.66 181.06-40.92" fill="none" stroke="#181818"/><polygon points="639.17 323.51 629.51 321.59 634.29 324.61 631.27 329.39" fill="#181818" stroke="#181818"/><text x="572" y="327.9649" fill="#000000" font-family="sans-serif" font-size="13" textLength="38">Wants</text><path d="m462.42 454.2c25.71-7 53.99-16.31 78.58-28.13 48.08-23.12 97.21-59.88 129.52-86.22" fill="none" stroke="#181818"/><polygon points="673.99 337 664.49 339.61 670.12 340.17 669.56 345.8" fill="#181818" stroke="#181818"/><text x="572" y="381.9649" fill="#000000" font-family="sans-serif" font-size="13" textLength="38">Wants</text><path d="m126.38 341.23c51.18 7.96 125.61 19.54 181.06 28.16" fill="none" stroke="#181818"/><polygon points="312.27 370.15 303.99 364.81 307.33 369.38 302.76 372.71" fill="#181818" stroke="#181818"/><text x="157" y="342.9649" fill="#000000" font-family="sans-serif" font-size="13" textLength="38">Wants</text><path d="m108.01 360.03c31.14 20.51 75.84 47.84 117.99 66.04 22.97 9.92 48.76 18.36 72.68 25.15" fill="none" stroke="#181818"/><polygon points="303.26 452.51 295.68 446.22 298.45 451.15 293.51 453.92" fill="#181818" stroke="#181818"/><text x="157" y="386.9649" fill="#000000" font-family="sans-serif" font-size="13" textLength="38">Wants</text></svg>
